<svg xmlns="http://www.w3.org/2000/svg" viewBox="0 0 313.88 219.7"><defs><style>.cls-1{fill:#fff;}</style></defs><title>VGMRecurso 9</title><g id="Capa_2" data-name="Capa 2"><g id="Capa_1-2" data-name="Capa 1"><path class="cls-1" d="M0,24.47c5.47,5,10.4,9.44,15.31,13.93Q74.25,92.27,133.14,146.17c6.93,6.37,14.54,10.71,24.19,10.55a30.08,30.08,0,0,0,20.25-7.85q23.47-21.24,46.8-42.65,44-40.2,88-80.43c.3-.27.64-.49,1.28-1,.09,1.13.21,2,.21,2.82q0,87.89,0,175.77c0,9.54-6.74,16.29-16.34,16.3q-59.31,0-118.62,0H16.75c-8.35,0-14.49-4.58-16.38-12.22A13.92,13.92,0,0,1,0,204.12Q0,115.45,0,26.81Z"/><path class="cls-1" d="M157,125.6,19.55,0h274.8Z"/></g></g></svg>