<svg xmlns="http://www.w3.org/2000/svg" viewBox="0 0 343.83 343.83"><defs><style>.cls-1{fill:#fff;}</style></defs><title>VGMRecurso 8</title><g id="Capa_2" data-name="Capa 2"><g id="Capa_1-2" data-name="Capa 1"><path class="cls-1" d="M86,0H257.86C260.91.56,264,1.07,267,1.68a95,95,0,0,1,76.77,93.67q.09,76.52-.06,153.05a101.32,101.32,0,0,1-1.61,18.33,94.72,94.72,0,0,1-73.75,75,103.79,103.79,0,0,1-20.29,2c-50.8.16-101.59,0-152.39.11a91.81,91.81,0,0,1-39-8.11C28.35,322.63,10.16,301,2.59,270.61c-1-4.21-1.74-8.5-2.59-12.75V86a26.43,26.43,0,0,0,.7-2.89,89.41,89.41,0,0,1,7.58-26.9c13.23-28,34.79-46.07,65-53.59C77.43,1.53,81.71.85,86,0ZM30.82,171.91h-.14q0,37.43,0,74.86a70.3,70.3,0,0,0,3.24,22.44c8.18,24.85,32.31,44.19,62.46,44,50.36-.3,100.72.05,151.07-.22a75.58,75.58,0,0,0,21.71-3.27c25.07-7.8,44.24-32.12,44.06-62.28-.3-50.36.05-100.72-.22-151.08a75.57,75.57,0,0,0-3.27-21.7c-7.82-25.14-32.23-44.24-62.28-44.06-50.36.3-100.72.11-151.08,0-10.81,0-21.18,1.88-30.68,7.05C44.33,49.33,31.77,67.22,31,91.68,30.18,118.4,30.82,145.16,30.82,171.91Z"/><path class="cls-1" d="M260.53,172a88.63,88.63,0,1,1-88.39-88.7A88.8,88.8,0,0,1,260.53,172Zm-30.74,0a57.89,57.89,0,1,0-58,57.85A57.74,57.74,0,0,0,229.79,171.94Z"/><path class="cls-1" d="M264.27,102.15a22.45,22.45,0,0,1-22.49-22.28,22.45,22.45,0,1,1,44.89-.11A22.47,22.47,0,0,1,264.27,102.15Z"/></g></g></svg>