<svg xmlns="http://www.w3.org/2000/svg" viewBox="0 0 48.26 42.55"><defs><style>.cls-1{fill:#fff;}</style></defs><title>VGMRecurso 4</title><g id="Capa_2" data-name="Capa 2"><g id="Capa_1-2" data-name="Capa 1"><path class="cls-1" d="M48.26,5.87a1,1,0,0,1-.11.46L27.6,41.88l-.18.32v0a1,1,0,0,1-1.72-.7V20a5.17,5.17,0,0,1,.1-1,4.89,4.89,0,0,1,1.86-2.94h0c.12-.09.25-.17.38-.25l.22-.13L46.82,5a1,1,0,0,1,.46-.11A1,1,0,0,1,48.26,5.87Z"/><path class="cls-1" d="M3.14.13A1,1,0,0,1,3.6,0L44.67,0h.38a1,1,0,0,1,.61.41,1,1,0,0,1-.36,1.42L26.69,12.6a5.15,5.15,0,0,1-.9.4,4.88,4.88,0,0,1-3.47-.14h0l-.41-.2-.22-.13L3.12,1.81a1,1,0,0,1-.34-.34A1,1,0,0,1,3.14.13Z"/><path class="cls-1" d="M0,5.87a.93.93,0,0,0,.12.46L20.66,41.88l.19.33a1,1,0,0,0,.74.34,1,1,0,0,0,1-1V20a4.46,4.46,0,0,0-.1-1,4.89,4.89,0,0,0-1.86-2.94h0l-.37-.25L20,15.72,1.44,5A1,1,0,0,0,1,4.89,1,1,0,0,0,0,5.87Z"/></g></g></svg>