<svg xmlns="http://www.w3.org/2000/svg" viewBox="0 0 408.81 408.81"><defs><style>.cls-1{fill:#fff;}</style></defs><title>VGMRecurso 7</title><g id="Capa_2" data-name="Capa 2"><g id="Capa_1-2" data-name="Capa 1"><path class="cls-1" d="M364.9,408.81H281.06V268.3h38.22c8.49-21.23,16.93-42.35,25.6-64.05H281.07c0-16.61,0-32.82,0-49,0-10.52,3.82-14.5,14.31-14.62,10.78-.12,21.55,0,32.33-.05h4.15V76.66c-15.61,0-30.9-.14-46.19.06a132.71,132.71,0,0,0-18.25,1.46c-32.41,5-60,34.12-62.15,66.69-1.19,18.15-.63,36.42-.86,54.64,0,1.54,0,3.09,0,5.06h-50.9v63.78h50.9V408.81H43.93a8,8,0,0,0-1.72-.77A50.82,50.82,0,0,1,0,358.22Q0,204.4.05,50.56A50.71,50.71,0,0,1,50.56.05Q204.4-.06,358.22,0a51,51,0,0,1,48.64,36.74c.68,2.37,1.3,4.76,1.95,7.15v321a5.18,5.18,0,0,0-.72,1.32c-3.95,20.3-15.86,33.63-35.31,40.34C370.2,407.45,367.53,408.07,364.9,408.81Z"/></g></g></svg>