<svg xmlns="http://www.w3.org/2000/svg" viewBox="0 0 48.26 60.94"><defs><style>.cls-1{fill:#fff;}</style></defs><title>VGMRecurso 1</title><g id="Capa_2" data-name="Capa 2"><g id="Capa_1-2" data-name="Capa 1"><path class="cls-1" d="M18.88,46.9l-2.62,7.79H13.1L10.48,46.9h2.59l1.61,5.36,1.6-5.36Z"/><path class="cls-1" d="M28.79,46.9v7.79H26.36V50.81l-1.2,3.88H23.07l-1.2-3.88v3.88H19.43V46.9h3l1.72,4.68,1.67-4.68Z"/><path class="cls-1" d="M34.67,49.56a.91.91,0,0,0-.4-.35,1.41,1.41,0,0,0-.64-.13,1.32,1.32,0,0,0-1.09.46,1.85,1.85,0,0,0-.39,1.25,1.88,1.88,0,0,0,.43,1.36,1.76,1.76,0,0,0,1.32.45,1.62,1.62,0,0,0,1.37-.68h-2V50.19h4v2.45a4.71,4.71,0,0,1-1.4,1.49,3.86,3.86,0,0,1-2.25.62,4.3,4.3,0,0,1-2.11-.5,3.44,3.44,0,0,1-1.38-1.4,4.66,4.66,0,0,1,0-4.12,3.51,3.51,0,0,1,1.37-1.41,4.29,4.29,0,0,1,2.1-.5,4,4,0,0,1,2.49.74,2.94,2.94,0,0,1,1.14,2Z"/><path class="cls-1" d="M48.26,5.87a1,1,0,0,1-.11.46L27.6,41.88l-.18.32v0a1,1,0,0,1-1.72-.7V20a5.17,5.17,0,0,1,.1-1,4.89,4.89,0,0,1,1.86-2.94h0c.12-.09.25-.17.38-.25l.22-.13L46.82,5a1,1,0,0,1,.46-.11A1,1,0,0,1,48.26,5.87Z"/><path class="cls-1" d="M3.14.13A1,1,0,0,1,3.6,0L44.67,0h.38a1,1,0,0,1,.61.41,1,1,0,0,1-.36,1.42L26.69,12.6a5.15,5.15,0,0,1-.9.4,4.88,4.88,0,0,1-3.47-.14h0l-.41-.2-.22-.13L3.12,1.81a1,1,0,0,1-.34-.34A1,1,0,0,1,3.14.13Z"/><path class="cls-1" d="M0,5.87a.93.93,0,0,0,.12.46L20.66,41.88l.19.33a1,1,0,0,0,.74.34,1,1,0,0,0,1-1V20a4.46,4.46,0,0,0-.1-1,4.89,4.89,0,0,0-1.86-2.94h0l-.37-.25L20,15.72,1.44,5A1,1,0,0,0,1,4.89,1,1,0,0,0,0,5.87Z"/><path class="cls-1" d="M15.37,59.06v1.36l-.08.08A1.62,1.62,0,0,1,13,58.2a1.62,1.62,0,0,1,2.26,0l-.37.39A1.07,1.07,0,0,0,13.36,60a1.07,1.07,0,0,0,1.47.15V59.6h-.65v-.54Z"/><path class="cls-1" d="M20.37,60.94h-.65l-.93-1.34h-.4v1.34h-.53V57.72h1.39a.93.93,0,0,1,.93.85,1,1,0,0,1-.75,1Zm-1.12-1.88a.4.4,0,0,0,.36-.2.43.43,0,0,0,0-.41.41.41,0,0,0-.36-.19h-.86v.8Z"/><path class="cls-1" d="M25.75,59.33a1.61,1.61,0,1,1-1.61-1.61A1.61,1.61,0,0,1,25.75,59.33Zm-.53,0a1.08,1.08,0,1,0-1.08,1.08A1.1,1.1,0,0,0,25.22,59.33Z"/><path class="cls-1" d="M30.63,57.72v2a1.2,1.2,0,0,1-2.39,0v-2h.54v2a.66.66,0,1,0,1.31,0v-2Z"/><path class="cls-1" d="M34.51,57.72a.94.94,0,0,1,0,1.88h-.86v1.34h-.53V57.72Zm.38.94a.39.39,0,0,0-.38-.4h-.86v.8h.86A.4.4,0,0,0,34.89,58.66Z"/></g></g></svg>